<svg xmlns="http://www.w3.org/2000/svg" width="40" height="40" fill="none" viewBox="0 0 28 28"><path fill="#fff" fill-rule="evenodd" d="M10.0625 4.49514C10.8909 3.19548 12.3445 2.33331 14 2.33331C15.6555 2.33331 17.1092 3.19548 17.9375 4.49514C19.4414 4.16148 21.0794 4.58031 22.2495 5.75048C23.4197 6.92181 23.8385 8.55864 23.5049 10.0636C24.8045 10.892 25.6667 12.3456 25.6667 14C25.6667 15.6555 24.8045 17.1091 23.5049 17.9375C23.8385 19.4425 23.4197 21.0793 22.2495 22.2495C21.0794 23.4208 19.4414 23.8385 17.9375 23.506C17.1092 24.8056 15.6555 25.6667 14 25.6667C12.3445 25.6667 10.8909 24.8056 10.0625 23.506C8.55754 23.8385 6.92071 23.4208 5.75054 22.2495C4.58038 21.0793 4.16155 19.4425 4.49405 17.9375C3.19555 17.1091 2.33337 15.6555 2.33337 14C2.33337 12.3456 3.19555 10.892 4.49405 10.0636C4.16155 8.55864 4.58038 6.92181 5.75054 5.75048C6.92071 4.58031 8.55754 4.16148 10.0625 4.49514ZM10.1244 6.97897C10.4301 7.13764 10.7905 7.1528 11.109 7.02097C11.4275 6.88914 11.6714 6.62314 11.7752 6.29531C12.0739 5.35148 12.957 4.66665 14 4.66665C15.043 4.66665 15.9262 5.35148 16.2249 6.29531C16.3287 6.62314 16.5726 6.88914 16.8911 7.02097C17.2096 7.1528 17.5689 7.13764 17.8745 6.97897C18.7542 6.52281 19.8626 6.66281 20.5999 7.40131C21.3372 8.13864 21.4784 9.24698 21.0222 10.1255C20.8636 10.4311 20.8472 10.7917 20.9791 11.109C21.1109 11.4275 21.3769 11.6713 21.7047 11.7752C22.6497 12.0738 23.3334 12.957 23.3334 14C23.3334 15.043 22.6497 15.9273 21.7047 16.226C21.3769 16.3298 21.1109 16.5736 20.9791 16.891C20.8472 17.2095 20.8636 17.57 21.0222 17.8756C21.4784 18.7541 21.3372 19.8625 20.5999 20.5998C19.8626 21.3371 18.7542 21.4783 17.8745 21.0221C17.5689 20.8635 17.2096 20.8483 16.8911 20.9802C16.5726 21.112 16.3287 21.378 16.2249 21.7058C15.9262 22.6496 15.043 23.3333 14 23.3333C12.957 23.3333 12.0739 22.6496 11.7752 21.7058C11.6714 21.378 11.4275 21.112 11.109 20.9802C10.7905 20.8483 10.4301 20.8635 10.1244 21.0221C9.24588 21.4783 8.13754 21.3371 7.40021 20.5998C6.66288 19.8625 6.52171 18.7541 6.97788 17.8756C7.13654 17.57 7.15171 17.2095 7.02105 16.891C6.88921 16.5736 6.62321 16.3298 6.29421 16.226C5.35038 15.9273 4.66671 15.043 4.66671 14C4.66671 12.957 5.35038 12.0738 6.29421 11.7752C6.62321 11.6713 6.88921 11.4275 7.02105 11.109C7.15171 10.7917 7.13654 10.4311 6.97788 10.1255C6.52171 9.24698 6.66288 8.13864 7.40021 7.40131C8.13754 6.66281 9.24588 6.52281 10.1244 6.97897ZM14 9.33331C11.424 9.33331 9.33337 11.4251 9.33337 14C9.33337 16.576 11.424 18.6666 14 18.6666C16.576 18.6666 18.6667 16.576 18.6667 14C18.6667 11.4251 16.576 9.33331 14 9.33331ZM14 11.6666C15.288 11.6666 16.3334 12.7131 16.3334 14C16.3334 15.288 15.288 16.3333 14 16.3333C12.712 16.3333 11.6667 15.288 11.6667 14C11.6667 12.7131 12.712 11.6666 14 11.6666Z" clip-rule="evenodd"/></svg>