<svg xmlns="http://www.w3.org/2000/svg" xmlns:xlink="http://www.w3.org/1999/xlink" id="Capa_1" width="11in" height="11in" data-name="Capa 1" viewBox="0 0 792 792"><defs><style>.cls-1{fill:url(#Degradado_sin_nombre_9)}</style><linearGradient id="Degradado_sin_nombre_9" x1="34.29" x2="766.15" y1="402.2" y2="402.2" data-name="Degradado sin nombre 9" gradientUnits="userSpaceOnUse"><stop offset="0" stop-color="#262973"/><stop offset="1" stop-color="#0075aa"/></linearGradient></defs><title>logo HEXL</title><path d="M400,123.1H552c6.2.3,11,2.9,14.2,8.4L580,155.5q12.6,21.6,25,43.2l36.6,63.5L676.7,323q20.5,35.4,40.9,70.8c3.4,5.9,3.4,11.8-.1,17.8q-17.2,29.7-34.3,59.5l-36.5,63.1c-9.7,17-19.5,33.9-29.3,50.9q-16.8,28.8-33.4,57.8l-17.5,30.2c-3.2,5.8-8.2,8.6-14.7,9H252.1a30.8,30.8,0,0,1-6.1-.4,15.9,15.9,0,0,1-12-8c-2.1-3.4-4.1-6.8-6-10.3q-24.7-42.6-49.3-85.4l-43.2-74.8q-21.4-37.2-43-74.4c-3.3-5.8-6.5-11.6-9.9-17.3s-3.7-11.8-.2-17.8,7.7-13.3,11.5-19.9L125.6,319l29.5-51.2Q171.9,239,188.5,210c9.9-17,19.7-34.1,29.6-51.2l14.5-25.2c.5-.8.9-1.6,1.4-2.3a16.3,16.3,0,0,1,14-8.1H400ZM325.4,400.6a51,51,0,0,0-2.8-17.3q-9.7-27.9-19.6-55.8-16.3-46.7-32.8-93.4l-17.7-50.7c-.6-1.6-1.2-3.3-1.9-5s-.4-1.4-1.2-1.3-1,.7-1.3,1.2-1,1.5-1.4,2.3l-11.3,19.6q-15,26-29.9,51.9l-35.2,60.8-42,72.7-5.1,9c-3.2,5.5-3,11,.2,16.4l.3.7,17.7,30.6,29.4,50.8,31.6,54.8,26.9,46.6L250.4,631c.5.9,1,1.8,1.6,2.7s.6.6.9.6.6-.4.8-.7a24.7,24.7,0,0,0,1-2.9l8.1-25.6,16.5-51.9c9.5-29.6,18.9-59.2,28.4-88.8,4.9-15.5,9.9-31,14.8-46.4A54.3,54.3,0,0,0,325.4,400.6Zm150.6-.7a52.3,52.3,0,0,0,2.4,17.7q11.3,34.8,22.3,69.8l15.9,50.1q14.7,45.8,29.3,91.7c.4,1.4.6,3,1.7,4.1,1.7-.7,2.1-2.4,2.9-3.8l38-65.7L631.6,489l39.6-68.4,6.1-10.7a14.8,14.8,0,0,0,.1-14.3l-2.6-4.7-26.4-45.5q-18.3-31.9-36.8-63.8-13.1-22.8-26.3-45.6l-32.4-56.1a8.6,8.6,0,0,0-1-1.6.8.8,0,0,0-1.3.1l-1.5,3.5c-9,25.9-18.1,51.7-27.1,77.5-9.8,27.7-19.5,55.5-29.3,83.2-4.4,12.6-8.8,25.1-13.3,37.7A51.3,51.3,0,0,0,476,399.9ZM400,158.8H267.6a20.6,20.6,0,0,0-2.6.3c-1.9.5-2.3,1.3-1.7,3.1l3.3,9.5Q279,207.4,291.4,243c8.1,23.4,16.3,46.7,24.4,70q13.5,39.2,27.2,78.3c1.5,4.5,1.3,4.4,6.2,4.4H454.7a2.6,2.6,0,0,0,2.4-1.6c.3-.9.7-1.9,1-2.9,1.8-5.2,3.6-10.4,5.5-15.6L495.1,285q8.1-23.7,16.3-47.2l25.5-73.1a17.1,17.1,0,0,0,.9-3,1.7,1.7,0,0,0-.9-1.9,9.7,9.7,0,0,0-3.7-1H400Zm.2,487.7H527.6c1.3,0,2.6.1,3.9,0s1.7-.7,1.4-2.1-.7-2.5-1.1-3.7l-19.2-59.9-23-71.6q-14.7-45.7-29.3-91.7c-1.6-4.9-1.3-4.6-6.4-4.6H344.1a2.5,2.5,0,0,0-2.3,1.7l-.9,2.5c-1.5,4.7-2.9,9.3-4.4,13.9l-25.8,80.4c-6.3,19.6-12.5,39.2-18.8,58.8l-22.8,70.9c-1.9,5.8-2.1,5.4,4.1,5.4Zm191.1,63a35.3,35.3,0,0,0,2.1-3.2l34-60.1,45.1-79.5q21.2-37.4,42.4-74.7l46.8-82.5c1.2-2.1,2.4-4.2,3.5-6.3a6.7,6.7,0,0,0,.1-6.7c-.5-1-1.1-2-1.7-3q-23.7-40.5-47.6-81l-43.5-74.2-48.3-82q-17.9-30.5-35.8-60.9a26.4,26.4,0,0,0-2.3-3.5,7,7,0,0,0-8.8-1,6.6,6.6,0,0,0-2.6,8,26.7,26.7,0,0,0,2.2,4.1l20.5,35.1,43.8,74.5L686.7,290l53.7,91.3,8.3,14.2a8.1,8.1,0,0,1,0,8.7l-30.2,53.4L692.1,504q-15.7,27.9-31.6,55.8l-34.2,60.4-27.9,49.1L581.6,699a19.8,19.8,0,0,0-2.1,4.1,6.9,6.9,0,0,0,6.7,9.1A7.4,7.4,0,0,0,591.3,709.5Zm-366.2-4.6c-.4-.8-.8-1.6-1.3-2.4L214.7,687l-43.5-74.1-45.9-78.1L81.7,460.7c-9.9-16.8-19.8-33.7-29.8-50.5-2-3.5-2.1-6.5,0-10,5.8-9.9,11.4-20,17.1-30l28.7-50.8Q110.9,296.3,124,273q15.9-27.7,31.6-55.7l26.7-47,35.6-62.8a42.3,42.3,0,0,0,2.5-4.7,5.9,5.9,0,0,0,.5-4.5,6.8,6.8,0,0,0-11.8-2.9,32.2,32.2,0,0,0-2.5,3.9l-18.7,33c-8.8,15.5-17.6,30.9-26.3,46.4l-31.8,56.1c-8.8,15.5-17.6,30.9-26.3,46.4Q87.6,309,71.9,336.9L41,391.3c-1.8,3.2-3.6,6.5-5.5,9.7a7.8,7.8,0,0,0,0,8.3l1.7,3.1c2.5,4.3,5,8.6,7.6,12.9q25.7,43.8,51.5,87.6,22.7,38.7,45.5,77.4t43.7,74.4q13.2,22.3,26.2,44.7c.6.9,1.1,1.8,1.7,2.6a6.1,6.1,0,0,0,5.3,2.6A6.6,6.6,0,0,0,225.1,704.9Z" class="cls-1"/></svg>