<svg xmlns="http://www.w3.org/2000/svg" width="40" height="40" fill="none" viewBox="0 0 57 57"><rect width="56" height="56" x=".5" y=".5" fill="#fff" stroke="#CBCBCB" rx="28"/><mask id="mask0" width="55" height="55" x="1" y="1" mask-type="alpha" maskUnits="userSpaceOnUse"><rect width="55" height="55" x="1" y="1" fill="#C4C4C4" rx="27.5"/></mask><g mask="url(#mask0)"><path fill="#1EAAE7" d="M17.5 24.3684C17.5 30.6362 22.6597 35.7368 29 35.7368C35.3403 35.7368 40.5 30.6362 40.5 24.3684C40.5 18.1006 35.3403 13 29 13C22.6597 13 17.5 18.1006 17.5 24.3684ZM49.4444 61H52V58.4737C52 48.7246 43.973 40.7895 34.1111 40.7895H23.8889C14.0244 40.7895 6 48.7246 6 58.4737V61H49.4444Z"/></g></svg>